<?xml version="1.0" encoding="UTF-8"?>
<svg width="18px" height="18px" viewBox="0 0 18 18" version="1.1" xmlns="http://www.w3.org/2000/svg" xmlns:xlink="http://www.w3.org/1999/xlink">
    <!-- Generator: Sketch 46.2 (44496) - http://www.bohemiancoding.com/sketch -->
    <title>attribution/nil</title>
    <desc>Created with Sketch.</desc>
    <defs></defs>
    <g id="Localization" stroke="none" stroke-width="1" fill="none" fill-rule="evenodd">
        <g id="API_Localization_V1_Desktop" transform="translate(-59.000000, -417.000000)">
            <g id="attribution/nil" transform="translate(60.000000, 418.000000)">
                <rect id="Rectangle" stroke="#1da1f2" stroke-width="2" x="0" y="0" width="16" height="16" rx="2"></rect>
                <path d="M7.1740227,10.090604 C6.95544237,10.21141 6.70008553,10.309843 6.40794451,10.385906 C6.1158035,10.4619691 5.79739559,10.5 5.45271122,10.5 C5.09541646,10.5 4.76650003,10.4395979 4.46595208,10.3187919 C4.16540413,10.197986 3.90689474,10.0279653 3.69041614,9.80872483 C3.47393755,9.58948436 3.3047505,9.32662346 3.18284994,9.02013423 C3.06094937,8.713645 3,8.3724851 3,7.9966443 C3,7.61632919 3.06200022,7.27181362 3.18600252,6.96308725 C3.31000482,6.65436087 3.48129357,6.39149997 3.6998739,6.17449664 C3.91845422,5.95749332 4.17486192,5.79082832 4.46910467,5.67449664 C4.76334741,5.55816497 5.08070448,5.5 5.42118537,5.5 C5.77427667,5.5 6.10214224,5.55704641 6.40479193,5.67114094 C6.70744161,5.78523547 6.95334079,5.93847779 7.14249685,6.13087248 L6.46153846,6.95637584 C6.35645177,6.82662128 6.21773941,6.72035836 6.04539723,6.63758389 C5.87305504,6.55480943 5.67759672,6.51342282 5.45901639,6.51342282 C5.26986034,6.51342282 5.09541904,6.5503352 4.93568726,6.62416107 C4.77595549,6.69798695 4.63724313,6.80089419 4.51954603,6.93288591 C4.40184893,7.06487762 4.31042487,7.2214756 4.24527112,7.40268456 C4.18011737,7.58389352 4.14754098,7.78187812 4.14754098,7.9966443 C4.14754098,8.21588477 4.17696482,8.41722503 4.23581337,8.60067114 C4.29466192,8.78411725 4.38188257,8.94183379 4.49747793,9.0738255 C4.6130733,9.20581721 4.75598906,9.30872446 4.92622951,9.38255034 C5.09646996,9.45637621 5.29087743,9.49328859 5.50945776,9.49328859 C5.63556179,9.49328859 5.75535883,9.48322158 5.86885246,9.46308725 C5.98234609,9.44295292 6.08743121,9.41051477 6.18411097,9.36577181 L6.18411097,8.5 L5.33291299,8.5 L5.33291299,7.5738255 L7.1740227,7.5738255 L7.1740227,10.090604 Z M8.05674653,10.3791946 L8.05674653,5.62751678 L9.14123581,5.62751678 L9.14123581,10.3791946 L8.05674653,10.3791946 Z M11.1273644,6.60738255 L11.1273644,7.58724832 L12.8549811,7.58724832 L12.8549811,8.53355705 L11.1273644,8.53355705 L11.1273644,10.3791946 L10.0617907,10.3791946 L10.0617907,5.62751678 L13,5.62751678 L13,6.60738255 L11.1273644,6.60738255 Z" id="GIF" fill="#1da1f2"></path>
            </g>
        </g>
    </g>
</svg>
