<?xml version="1.0"?>
<svg xmlns="http://www.w3.org/2000/svg" height="512px" viewBox="-102 -21 682 682.66669" width="512px"><g><path d="m-3.769531 108.75h107.386719v-107.386719zm0 0" data-original="#000000" class="active-path" data-old_color="#000000" fill="#989898"/><path d="m256.703125 178.015625c12.207031 0 22.136719-9.929687 22.136719-22.132813 0-12.207031-9.929688-22.132812-22.136719-22.132812-12.199219 0-22.128906 9.925781-22.128906 22.132812 0 12.207032 9.929687 22.132813 22.128906 22.132813zm0 0" data-original="#000000" class="active-path" data-old_color="#000000" fill="#989898"/><path d="m141.117188 146.25h-146.117188v183.007812l164.039062-102.675781 95.082032 64.433594 102.941406-64.433594 116.6875 79.078125v-305.660156h-332.632812zm115.585937-50c32.886719 0 59.636719 26.753906 59.636719 59.632812 0 32.882813-26.75 59.632813-59.636719 59.632813-32.878906 0-59.628906-26.75-59.628906-59.632813 0-32.878906 26.75-59.632812 59.628906-59.632812zm0 0" data-original="#000000" class="active-path" data-old_color="#000000" fill="#989898"/><path d="m473.75 350.960938-117.503906-79.632813-68.1875 42.6875 34.59375 23.445313-21.039063 31.039062-143.390625-97.171875-163.222656 102.171875v41.085938h478.75zm0 0" data-original="#000000" class="active-path" data-old_color="#000000" fill="#989898"/><path d="m-5 452.085938v187.914062h478.75v-187.914062zm223.722656 151.585937h-25.722656v-9.429687c-8.09375 6.820312-17.414062 10.226562-27.957031 10.226562-7.347657 0-14.378907-1.300781-21.085938-3.914062-6.710937-2.605469-12.570312-6.414063-17.574219-11.417969-5.003906-5.003907-9-11.128907-11.976562-18.375-2.984375-7.242188-4.480469-15.492188-4.480469-24.761719 0-7.988281 1.496094-15.414062 4.480469-22.285156 2.976562-6.871094 7.078125-12.835938 12.296875-17.894532 5.214844-5.054687 11.367187-9.046874 18.453125-11.976562 7.082031-2.929688 14.722656-4.394531 22.925781-4.394531 5.113281 0 10.007813.554687 14.695313 1.675781 4.683594 1.121094 9.023437 2.773438 13.019531 4.953125 3.992187 2.183594 7.59375 4.789063 10.785156 7.828125 3.195313 3.03125 5.800781 6.46875 7.828125 10.304688l-23.164062 17.734374c-2.238282-4.480468-5.589844-8.074218-10.0625-10.789062s-9.214844-4.070312-14.21875-4.070312c-3.730469 0-7.140625.746093-10.226563 2.234374-3.089843 1.496094-5.75 3.570313-7.988281 6.230469-2.234375 2.667969-3.992188 5.832031-5.273438 9.507813-1.277343 3.671875-1.917968 7.695312-1.917968 12.058594 0 4.476562.644531 8.523437 1.917968 12.140624 1.28125 3.625 3.0625 6.738282 5.351563 9.351563 2.289063 2.605469 5.035156 4.632813 8.226563 6.070313 3.195312 1.433593 6.765624 2.15625 10.703124 2.15625 9.054688 0 17.042969-3.730469 23.964844-11.1875h-19.652344v-22.363282h46.652344zm46.488282 0h-31.152344v-113.429687h31.152344zm97.285156-86.265625h-46.644532v18.847656h38.019532v25.246094h-38.019532v42.171875h-31.152343v-113.421875h77.796875zm0 0" data-original="#000000" class="active-path" data-old_color="#000000" fill="#989898"/></g> </svg>
